<svg id="svg" height="400" width="400" version="1.1" xmlns="http://www.w3.org/2000/svg" xmlns:xlink="http://www.w3.org/1999/xlink" style="display: block;"><g id="svgg"><path id="path0" d="M54.447 1.172 C 53.915 3.567,0.000 344.867,0.000 345.841 C -0.000 347.144,-20.730 343.723,168.750 373.691 C 318.210 397.330,335.766 400.009,341.146 400.005 L 347.135 399.999 373.598 232.682 C 401.064 59.013,401.768 54.167,399.498 54.167 C 399.223 54.167,321.999 41.979,227.890 27.083 C 39.532 -2.730,54.807 -0.448,54.447 1.172 M226.947 37.674 C 316.104 51.799,389.187 63.492,389.353 63.659 C 389.744 64.049,380.376 123.389,379.383 126.812 C 378.969 128.239,378.500 131.052,378.340 133.062 C 377.940 138.081,375.019 157.312,374.462 158.594 C 374.214 159.167,373.520 163.151,372.920 167.448 C 371.069 180.718,338.300 388.584,337.974 389.125 C 337.689 389.598,12.755 338.449,12.141 337.835 C 12.001 337.696,18.961 292.973,27.608 238.452 C 36.254 183.931,43.894 135.573,44.585 130.990 C 45.277 126.406,46.539 118.438,47.390 113.281 C 48.241 108.125,52.111 83.750,55.990 59.115 C 63.963 8.471,63.352 11.977,64.203 11.986 C 64.555 11.990,137.790 23.549,226.947 37.674 M99.019 141.536 C 99.052 164.954,99.172 183.763,99.285 183.333 C 99.589 182.181,114.063 100.020,114.063 99.447 C 114.063 99.165,110.867 98.958,106.510 98.958 L 98.958 98.958 99.019 141.536 M248.958 106.794 C 272.878 111.052,292.507 114.547,292.578 114.560 C 292.650 114.573,292.708 111.068,292.708 106.771 L 292.708 98.958 249.089 99.005 L 205.469 99.051 248.958 106.794 M131.925 135.141 C 130.593 137.857,130.356 138.076,129.045 137.814 C 127.554 137.516,127.598 137.448,126.840 141.276 C 126.741 141.777,126.931 142.191,127.262 142.195 C 129.195 142.221,129.244 142.910,127.855 150.567 C 125.747 162.191,125.925 164.693,128.962 166.077 C 130.723 166.879,134.866 166.838,135.166 166.016 C 135.959 163.847,135.666 162.759,134.246 162.596 C 131.831 162.318,131.882 158.672,134.476 146.187 L 134.998 143.676 136.961 144.007 C 140.175 144.550,140.965 139.958,137.760 139.357 C 135.773 138.985,135.694 138.731,136.411 135.026 C 136.708 133.490,136.662 132.810,136.258 132.805 C 135.939 132.801,135.159 132.659,134.527 132.490 C 133.537 132.225,133.173 132.596,131.925 135.141 M179.321 155.548 C 175.820 175.337,175.828 174.365,179.156 174.586 C 181.375 174.732,181.512 174.659,182.048 173.038 L 182.611 171.336 183.475 173.148 C 185.015 176.377,188.976 177.654,192.768 176.143 C 199.170 173.592,202.425 155.264,197.282 150.726 C 194.226 148.030,189.933 148.149,187.385 151.001 C 185.647 152.945,185.651 153.005,187.059 144.946 C 188.345 137.586,188.506 138.190,185.136 137.743 L 182.531 137.398 179.321 155.548 M146.479 142.527 C 134.867 148.251,137.820 169.725,150.226 169.780 C 162.138 169.833,167.377 148.343,156.764 142.965 C 153.712 141.419,149.124 141.223,146.479 142.527 M155.078 147.739 C 158.865 151.867,154.788 165.104,149.730 165.104 C 146.305 165.104,145.567 163.908,145.598 158.407 C 145.654 148.328,150.557 142.810,155.078 147.739 M209.635 153.211 C 198.441 159.387,200.418 180.729,212.185 180.729 C 217.735 180.729,223.174 175.918,219.193 174.530 C 216.844 173.711,216.353 173.798,214.853 175.299 C 212.504 177.647,209.154 176.297,208.337 172.673 C 208.000 171.179,208.142 167.173,208.532 167.190 C 208.566 167.192,211.682 167.745,215.457 168.418 L 222.321 169.644 222.674 165.875 C 223.572 156.287,216.504 149.421,209.635 153.211 M191.523 153.639 C 194.654 153.674,194.098 166.400,190.794 170.326 C 189.226 172.190,186.613 172.444,185.190 170.871 C 181.389 166.670,185.246 152.153,189.844 153.359 C 190.417 153.509,191.172 153.635,191.523 153.639 M217.150 158.664 C 218.192 159.989,218.712 164.063,217.839 164.062 C 216.890 164.060,209.804 162.581,209.555 162.333 C 209.130 161.908,209.825 160.126,210.997 158.637 C 212.500 156.725,215.636 156.739,217.150 158.664 M245.998 159.428 C 237.794 161.802,234.748 179.698,241.676 184.821 C 248.211 189.652,256.324 186.940,259.324 178.923 C 263.995 166.440,257.022 156.238,245.998 159.428 M265.216 175.391 C 263.991 182.480,262.996 188.543,263.005 188.863 C 263.027 189.685,268.256 190.680,268.489 189.907 C 268.586 189.586,269.274 185.755,270.019 181.395 C 271.846 170.691,273.196 168.572,277.623 169.457 C 278.472 169.627,279.177 169.596,279.189 169.388 C 279.202 169.180,279.402 168.027,279.635 166.826 C 280.588 161.905,275.677 162.708,272.571 167.981 C 272.078 168.819,272.017 168.468,272.245 166.094 L 272.525 163.177 270.833 162.838 C 267.305 162.133,267.633 161.402,265.216 175.391 M253.117 164.472 C 256.320 167.066,254.687 178.605,250.670 181.766 C 247.517 184.245,243.750 181.591,243.750 176.890 C 243.750 171.100,245.829 164.774,248.020 163.895 C 249.497 163.304,252.028 163.590,253.117 164.472 M130.978 194.602 C 129.792 197.026,129.410 197.396,128.097 197.396 C 125.924 197.396,124.855 201.691,126.953 201.989 C 128.394 202.194,128.404 201.708,126.774 210.599 C 124.396 223.562,125.048 225.840,131.292 226.387 C 133.983 226.622,134.087 226.552,134.598 224.171 C 134.916 222.685,134.809 222.522,133.226 222.071 C 130.928 221.416,130.860 220.277,132.557 210.912 C 134.145 202.143,133.698 203.082,136.039 203.610 C 138.110 204.077,138.519 203.550,138.535 200.391 C 138.541 199.092,138.366 198.958,136.670 198.958 L 134.798 198.958 135.163 196.224 C 135.364 194.720,135.561 193.275,135.602 193.013 C 135.960 190.727,132.250 192.002,130.978 194.602 M178.426 214.703 C 176.730 224.520,175.248 232.824,175.133 233.157 C 174.967 233.637,179.972 234.985,180.595 234.628 C 180.665 234.588,181.439 230.589,182.314 225.741 C 184.231 215.124,185.286 213.074,188.852 213.037 C 192.654 212.998,193.046 215.403,191.083 226.725 C 189.262 237.227,189.141 236.393,192.537 236.796 L 195.111 237.100 196.592 228.837 C 199.040 215.179,198.760 211.551,195.085 209.310 C 192.141 207.515,188.872 208.125,185.984 211.010 C 184.325 212.666,184.250 212.690,184.591 211.458 C 185.621 207.740,187.062 198.316,186.658 197.943 C 186.405 197.709,185.143 197.368,183.854 197.186 L 181.510 196.854 178.426 214.703 M146.615 201.668 C 138.260 204.574,135.224 222.125,142.214 227.102 C 150.856 233.256,160.293 227.139,161.288 214.739 C 162.050 205.241,154.830 198.809,146.615 201.668 M285.221 244.922 C 281.269 267.337,277.912 286.322,277.759 287.109 L 277.483 288.542 285.096 288.542 L 292.708 288.542 292.708 246.354 C 292.708 223.151,292.640 204.167,292.557 204.167 C 292.474 204.167,289.173 222.507,285.221 244.922 M153.614 206.641 C 158.540 210.632,153.484 226.156,147.728 224.711 C 142.848 223.486,143.520 208.095,148.541 206.083 C 150.007 205.496,152.545 205.775,153.614 206.641 M208.496 212.553 C 205.110 213.533,202.568 217.973,205.078 218.523 C 205.866 218.695,207.155 219.039,207.943 219.287 C 208.999 219.619,209.375 219.561,209.375 219.064 C 209.375 216.830,213.337 215.941,215.162 217.766 C 216.109 218.713,216.317 222.398,215.470 223.245 C 215.412 223.304,213.489 223.141,211.197 222.883 C 205.791 222.275,203.015 223.434,201.139 227.083 C 196.649 235.815,205.523 243.921,212.230 237.215 C 214.038 235.407,214.063 235.399,214.063 236.677 C 214.063 240.803,220.049 243.798,221.367 240.331 C 222.095 238.415,222.006 238.021,220.843 238.021 C 219.209 238.021,219.076 236.018,220.263 229.325 C 221.933 219.916,221.745 217.605,219.076 214.668 C 216.862 212.233,212.569 211.375,208.496 212.553 M226.567 216.625 C 226.569 217.651,226.801 220.599,227.081 223.177 C 227.613 228.065,227.799 229.849,228.624 237.976 C 229.179 243.447,229.224 243.507,233.197 244.003 C 236.623 244.431,235.231 246.257,242.706 231.537 C 249.649 217.865,249.481 218.751,245.248 218.090 L 243.360 217.795 240.991 222.830 C 237.798 229.616,235.405 234.885,234.808 236.441 C 234.145 238.168,233.463 237.049,233.430 234.182 C 233.416 232.999,233.120 228.373,232.771 223.901 L 232.136 215.771 229.349 215.266 L 226.563 214.761 226.567 216.625 M256.442 220.879 C 248.639 223.141,245.598 241.583,252.213 246.523 C 256.778 249.933,262.354 249.415,265.853 245.256 C 267.383 243.438,267.258 243.136,264.618 242.252 C 262.994 241.709,262.705 241.774,261.465 242.963 C 257.867 246.409,253.316 242.458,254.376 236.808 L 254.701 235.075 261.532 236.307 C 269.601 237.763,268.796 238.199,268.824 232.356 C 268.868 223.061,264.115 218.655,256.442 220.879 M262.866 226.172 C 264.105 227.531,264.887 231.001,264.069 231.506 C 262.781 232.303,255.729 230.636,255.729 229.535 C 255.729 225.959,260.586 223.670,262.866 226.172 M213.281 227.354 C 216.761 228.076,212.983 234.896,209.103 234.896 C 205.555 234.896,205.020 228.458,208.456 227.115 C 209.572 226.679,210.175 226.709,213.281 227.354 M98.958 280.729 L 98.958 288.542 142.839 288.495 L 186.719 288.449 143.229 280.706 C 119.310 276.448,99.564 272.953,99.349 272.940 C 99.134 272.927,98.958 276.432,98.958 280.729 " stroke="none" fill="#ffffff" fill-rule="evenodd"></path><path id="path1" d="M63.302 13.151 C 63.159 13.796,59.868 34.479,55.990 59.115 C 52.111 83.750,48.241 108.125,47.390 113.281 C 46.539 118.438,45.277 126.406,44.585 130.990 C 43.894 135.573,36.254 183.931,27.608 238.452 C 18.961 292.973,12.001 337.696,12.141 337.835 C 12.755 338.449,337.689 389.598,337.974 389.125 C 338.300 388.584,371.069 180.718,372.920 167.448 C 373.520 163.151,374.214 159.167,374.462 158.594 C 375.019 157.312,377.940 138.081,378.340 133.062 C 378.500 131.052,378.969 128.239,379.383 126.812 C 380.376 123.389,389.744 64.049,389.353 63.659 C 389.081 63.387,65.743 12.002,64.203 11.986 C 63.850 11.982,63.445 12.507,63.302 13.151 M114.063 99.447 C 114.063 100.020,99.589 182.181,99.285 183.333 C 99.172 183.763,99.052 164.954,99.019 141.536 L 98.958 98.958 106.510 98.958 C 110.867 98.958,114.063 99.165,114.063 99.447 M292.708 106.771 C 292.708 111.068,292.650 114.573,292.578 114.560 C 292.507 114.547,272.878 111.052,248.958 106.794 L 205.469 99.051 249.089 99.005 L 292.708 98.958 292.708 106.771 M136.258 132.805 C 136.662 132.810,136.708 133.490,136.411 135.026 C 135.694 138.731,135.773 138.985,137.760 139.357 C 140.965 139.958,140.175 144.550,136.961 144.007 L 134.998 143.676 134.476 146.187 C 131.882 158.672,131.831 162.318,134.246 162.596 C 135.666 162.759,135.959 163.847,135.166 166.016 C 134.866 166.838,130.723 166.879,128.962 166.077 C 125.925 164.693,125.747 162.191,127.855 150.567 C 129.244 142.910,129.195 142.221,127.262 142.195 C 126.931 142.191,126.741 141.777,126.840 141.276 C 127.598 137.448,127.554 137.516,129.045 137.814 C 130.356 138.076,130.593 137.857,131.925 135.141 C 133.173 132.596,133.537 132.225,134.527 132.490 C 135.159 132.659,135.939 132.801,136.258 132.805 M187.961 138.308 C 188.082 138.429,187.676 141.416,187.059 144.946 C 185.651 153.005,185.647 152.945,187.385 151.001 C 189.933 148.149,194.226 148.030,197.282 150.726 C 202.425 155.264,199.170 173.592,192.768 176.143 C 188.976 177.654,185.015 176.377,183.475 173.148 L 182.611 171.336 182.048 173.038 C 181.512 174.659,181.375 174.732,179.156 174.586 C 175.828 174.365,175.820 175.337,179.321 155.548 L 182.531 137.398 185.136 137.743 C 186.569 137.933,187.840 138.188,187.961 138.308 M156.764 142.965 C 163.496 146.377,164.335 157.954,158.432 165.989 C 153.140 173.194,141.217 169.839,139.625 160.698 C 137.335 147.545,146.694 137.862,156.764 142.965 M148.690 147.560 C 145.626 150.624,144.231 161.424,146.565 164.006 C 148.794 166.472,152.771 165.208,154.583 161.458 C 158.907 152.511,154.391 141.859,148.690 147.560 M217.352 153.189 C 221.419 155.278,223.257 159.658,222.674 165.875 L 222.321 169.644 215.457 168.418 C 211.682 167.745,208.566 167.192,208.532 167.190 C 208.142 167.173,208.000 171.179,208.337 172.673 C 209.154 176.297,212.504 177.647,214.853 175.299 C 216.353 173.798,216.844 173.711,219.193 174.530 C 223.174 175.918,217.735 180.729,212.185 180.729 C 203.018 180.729,199.215 168.800,204.909 157.902 C 207.204 153.510,213.405 151.161,217.352 153.189 M187.627 153.918 C 183.913 156.550,182.312 167.690,185.190 170.871 C 186.613 172.444,189.226 172.190,190.794 170.326 C 194.098 166.400,194.654 153.674,191.523 153.639 C 191.172 153.635,190.417 153.509,189.844 153.359 C 189.271 153.208,188.273 153.460,187.627 153.918 M210.997 158.637 C 209.825 160.126,209.130 161.908,209.555 162.333 C 209.804 162.581,216.890 164.060,217.839 164.062 C 218.712 164.063,218.192 159.989,217.150 158.664 C 215.636 156.739,212.500 156.725,210.997 158.637 M254.320 159.850 C 265.802 164.772,261.390 186.805,248.877 187.033 C 241.765 187.162,237.898 182.857,237.834 174.740 C 237.744 163.217,245.608 156.115,254.320 159.850 M270.833 162.838 L 272.525 163.177 272.245 166.094 C 272.017 168.468,272.078 168.819,272.571 167.981 C 275.677 162.708,280.588 161.905,279.635 166.826 C 279.402 168.027,279.202 169.180,279.189 169.388 C 279.177 169.596,278.472 169.627,277.623 169.457 C 273.196 168.572,271.846 170.691,270.019 181.395 C 269.274 185.755,268.586 189.586,268.489 189.907 C 268.256 190.680,263.027 189.685,263.005 188.863 C 262.996 188.543,263.991 182.480,265.216 175.391 C 267.633 161.402,267.305 162.133,270.833 162.838 M248.020 163.895 C 244.596 165.268,242.290 177.970,244.922 180.961 C 248.631 185.176,252.965 181.827,254.388 173.644 C 255.721 165.977,253.046 161.881,248.020 163.895 M135.602 193.013 C 135.561 193.275,135.364 194.720,135.163 196.224 L 134.798 198.958 136.670 198.958 C 138.366 198.958,138.541 199.092,138.535 200.391 C 138.519 203.550,138.110 204.077,136.039 203.610 C 133.698 203.082,134.145 202.143,132.557 210.912 C 130.860 220.277,130.928 221.416,133.226 222.071 C 134.809 222.522,134.916 222.685,134.598 224.171 C 134.087 226.552,133.983 226.622,131.292 226.387 C 125.048 225.840,124.396 223.562,126.774 210.599 C 128.404 201.708,128.394 202.194,126.953 201.989 C 124.855 201.691,125.924 197.396,128.097 197.396 C 129.410 197.396,129.792 197.026,130.978 194.602 C 132.250 192.002,135.960 190.727,135.602 193.013 M186.658 197.943 C 187.062 198.316,185.621 207.740,184.591 211.458 C 184.250 212.690,184.325 212.666,185.984 211.010 C 188.872 208.125,192.141 207.515,195.085 209.310 C 198.760 211.551,199.040 215.179,196.592 228.837 L 195.111 237.100 192.537 236.796 C 189.141 236.393,189.262 237.227,191.083 226.725 C 193.046 215.403,192.654 212.998,188.852 213.037 C 185.286 213.074,184.231 215.124,182.314 225.741 C 181.439 230.589,180.665 234.588,180.595 234.628 C 179.972 234.985,174.967 233.637,175.133 233.157 C 175.248 232.824,176.730 224.520,178.426 214.703 L 181.510 196.854 183.854 197.186 C 185.143 197.368,186.405 197.709,186.658 197.943 M154.494 201.870 C 165.839 206.531,162.310 228.618,150.098 229.379 C 142.679 229.841,138.367 225.156,138.397 216.667 C 138.435 205.612,146.209 198.467,154.494 201.870 M292.708 246.354 L 292.708 288.542 285.096 288.542 L 277.483 288.542 277.759 287.109 C 277.912 286.322,281.269 267.337,285.221 244.922 C 289.173 222.507,292.474 204.167,292.557 204.167 C 292.640 204.167,292.708 223.151,292.708 246.354 M148.541 206.083 C 145.231 207.410,142.844 219.920,145.304 223.048 C 148.878 227.592,153.451 224.210,154.892 215.957 C 156.264 208.097,153.652 204.035,148.541 206.083 M216.212 212.715 C 221.383 214.881,222.218 218.307,220.263 229.325 C 219.076 236.018,219.209 238.021,220.843 238.021 C 222.006 238.021,222.095 238.415,221.367 240.331 C 220.049 243.798,214.063 240.803,214.063 236.677 C 214.063 235.399,214.038 235.407,212.230 237.215 C 205.523 243.921,196.649 235.815,201.139 227.083 C 203.015 223.434,205.791 222.275,211.197 222.883 C 213.489 223.141,215.412 223.304,215.470 223.245 C 216.317 222.398,216.109 218.713,215.162 217.766 C 213.337 215.941,209.375 216.830,209.375 219.064 C 209.375 219.561,208.999 219.619,207.943 219.287 C 207.155 219.039,205.866 218.695,205.078 218.523 C 203.237 218.120,203.272 217.357,205.241 214.969 C 207.582 212.128,212.434 211.132,216.212 212.715 M232.771 223.901 C 233.120 228.373,233.416 232.999,233.430 234.182 C 233.463 237.049,234.145 238.168,234.808 236.441 C 235.405 234.885,237.798 229.616,240.991 222.830 L 243.360 217.795 245.248 218.090 C 249.481 218.751,249.649 217.865,242.706 231.537 C 235.231 246.257,236.623 244.431,233.197 244.003 C 229.224 243.507,229.179 243.447,228.624 237.976 C 227.799 229.849,227.613 228.065,227.081 223.177 C 226.801 220.599,226.569 217.651,226.567 216.625 L 226.563 214.761 229.349 215.266 L 232.136 215.771 232.771 223.901 M264.357 221.607 C 267.683 223.556,268.852 226.369,268.824 232.356 C 268.796 238.199,269.601 237.763,261.532 236.307 L 254.701 235.075 254.376 236.808 C 253.316 242.458,257.867 246.409,261.465 242.963 C 262.813 241.670,265.216 241.788,266.826 243.225 C 268.113 244.374,262.679 248.419,259.415 248.743 C 252.639 249.415,248.705 244.985,248.738 236.719 C 248.786 224.288,256.386 216.936,264.357 221.607 M257.058 226.742 C 254.738 229.783,255.145 230.492,259.626 231.215 C 264.281 231.966,264.724 231.779,264.275 229.256 C 263.494 224.875,259.534 223.496,257.058 226.742 M208.456 227.115 C 205.020 228.458,205.555 234.896,209.103 234.896 C 212.983 234.896,216.761 228.076,213.281 227.354 C 210.175 226.709,209.572 226.679,208.456 227.115 M143.229 280.706 L 186.719 288.449 142.839 288.495 L 98.958 288.542 98.958 280.729 C 98.958 276.432,99.134 272.927,99.349 272.940 C 99.564 272.953,119.310 276.448,143.229 280.706 " stroke="none" fill="#e7ad0f" fill-rule="evenodd"></path></g></svg>